# xmcd CD database file
#
# Track frame offsets:
#	150
#	12134
#	30885
#	42630
#	61897
#	70441
#	87247
#	99383
#	115531
#	124777
#	136726
#	147098
#	159394
#	172380
#	183737
#	201386
#	217257
#	230748
#	245773
#	256694
#
# Disc length: 3601 seconds
#
# Revision: 0
# Processed by: cddbd v1.5.1PL0 Copyright (c) Steve Scherf et al.
# Submitted via: CDex 1.50
#
DISCID=240e0f14
DTITLE=The Bachelors - The Bachelors
DYEAR=1900
DGENRE=Country
TTITLE0=The Bachelors =Charmaine
TTITLE1=The Bachelors =Danny Boy
TTITLE2=The Bachelors =Diane
TTITLE3=The Bachelors =He Ain't Heavy He's My Brother
TTITLE4=The Bachelors =I Believe
TTITLE5=The Bachelors =I Need Love
TTITLE6=The Bachelors =I Wouldn't Trade You For The World
TTITLE7=The Bachelors =Key To My Heart
TTITLE8=The Bachelors =Love Me With All Your Heart
TTITLE9=The Bachelors =Maggie
TTITLE10=The Bachelors =Marie
TTITLE11=The Bachelors =Marta
TTITLE12=The Bachelors =No Arms Can Ever Hold You
TTITLE13=The Bachelors =Ramona
TTITLE14=The Bachelors =Rose Of Tralee
TTITLE15=The Bachelors =Stay
TTITLE16=The Bachelors =The Sound Of Silence
TTITLE17=The Bachelors =The Unicorn
TTITLE18=The Bachelors =Whispering 
TTITLE19=The Bachelors =You'll Never Walk Alone
EXTD=
EXTT0=
EXTT1=
EXTT2=
EXTT3=
EXTT4=
EXTT5=
EXTT6=
EXTT7=
EXTT8=
EXTT9=
EXTT10=
EXTT11=
EXTT12=
EXTT13=
EXTT14=
EXTT15=
EXTT16=
EXTT17=
EXTT18=
EXTT19=
PLAYORDER=
